<svg xmlns="http://www.w3.org/2000/svg" width="56" height="56" viewBox="0 0 56 56" fill="none">
  <path d="M50.7163 19.75H47.2308V17.375C47.2308 16.0625 46.2091 15 44.9471 15H5.28365C4.02163 15 3 16.0625 3 17.375V37.625C3 38.9375 4.02163 40 5.28365 40H44.9471C46.2091 40 47.2308 38.9375 47.2308 37.625V35.25H50.7163C51.9784 35.25 53 34.1875 53 32.875V22.125C53 20.8125 51.9784 19.75 50.7163 19.75Z" stroke="currentColor" stroke-width="2" stroke-miterlimit="10"/>
  <path d="M16.785 18H7.215C6.54397 18 6 18.5803 6 19.2962V35.7038C6 36.4197 6.54397 37 7.215 37H16.785C17.456 37 18 36.4197 18 35.7038V19.2962C18 18.5803 17.456 18 16.785 18Z" fill="currentColor"/>
</svg>
